<svg version="1.2" xmlns="http://www.w3.org/2000/svg" viewBox="0 0 312 306" width="312" height="306"><style>.a{fill:#ff4a3f}.b{fill:#915eff}.c{fill:#fff}</style><path class="a" d="m56.5 43.8h1.4l-1.1-0.6zm3.7-1.7c0 0.3 0 0.3 0.3 0.3l1.1-0.9c-0.6-0.3-0.8-0.3-1.4 0.6zm-10.9 6.3l1.7-1.5c0.3-0.2 0.3-0.5 0.3-0.8h-0.8l-3.5 3.1-0.5 1.2 2-1.7zm6-6.9h-0.3l-0.6 0.6h0.9zm-6.3 8.3l0.8-0.6c0.3-0.3 0.3-0.6 0.3-0.6h-0.6l-0.5 1.2c-0.3-0.3-0.3 0 0 0z"/><path class="b" d="m27.6 71.5v-0.6q0.1-0.4 0.2-0.9 0.2-0.4 0.5-0.8 0.2-0.4 0.6-0.8 0.3-0.3 0.7-0.6l2.6-1.7 1.4-1.7 2-2 1.1-1.2 1.2-0.8q0.4-0.3 0.7-0.5 0.3-0.3 0.6-0.6 0.3-0.4 0.6-0.7 0.2-0.4 0.4-0.8l1.1-1.5q0.4-0.4 0.8-0.8 0.4-0.4 0.8-0.9 0.3-0.5 0.7-1 0.3-0.5 0.6-1l0.5-0.8 0.9-0.6-0.6-0.9 1.2-1.4c2.3-1.7 4-4 6.3-5.7l0.8-0.9q0.1-0.2 0.3-0.5 0.1-0.2 0.3-0.4 0.2-0.2 0.4-0.4 0.2-0.2 0.5-0.4l2.2-1.1h1.2q0.3-0.1 0.6-0.3 0.3-0.2 0.5-0.4 0.3-0.2 0.5-0.5 0.2-0.3 0.4-0.5v-0.6q0.3-0.6 0.7-1.2 0.4-0.6 0.9-1.1 0.4-0.5 1-0.9 0.5-0.5 1.1-0.8l2.3-1.4 0.6-0.6 1.1-1.2 2.9-1.4h0.6l-3.2 1.1-4 2.9c-1.7 1.4-4 1.7-5.1 4h0.8c-2 0.6-4 1.4-4.9 3.4-0.8 2-2.2 1.8-3.4 2.6q-0.2 0.1-0.3 0.2-0.2 0.1-0.3 0.2-0.1 0.2-0.2 0.4-0.1 0.2 0 0.4c-2.3-0.3-3.2 1.4-4.3 2.5v2.3q-0.7 0.4-1.4 0.8-0.6 0.4-1.2 0.9-0.6 0.5-1.1 1.1-0.5 0.6-0.9 1.2c-4.6 0.3-4.6 6-8.6 7.2h-0.3q0 0 0 0.1-0.1 0.1-0.1 0.2 0 0 0.1 0.1 0 0.1 0 0.2c-0.8 0-1.4 0.5-1.1 1.4l-0.6 1.4c-2 1.2-1.7 3.2-2.9 4.9-2.2 1.4-3.1 4.3-4.8 6.3l0.8 1.4 0.6-0.6q0.3-0.5 0.6-0.9 0.3-0.5 0.6-1 0.4-0.4 0.7-0.9 0.3-0.4 0.7-0.9zm126.4-62.1l1.7 0.6h0.6q0.5 0.2 1 0.4 0.4 0.2 1 0.2 0.5 0.1 1 0.1 0.5 0 1-0.1 0.7-0.1 1.4-0.2 0.7 0 1.3 0 0.7 0 1.4 0.2 0.7 0.1 1.3 0.3h3.5q0.4-0.1 0.9-0.1 0.4 0 0.9 0.1 0.4 0.1 0.8 0.3 0.5 0.2 0.8 0.5 0 0.1 0 0.1 0 0 0 0.1 0 0 0 0 0 0.1 0 0.1h-1.1q-0.1 0-0.1 0.1 0 0 0 0.1 0 0 0 0 0 0.1 0.1 0.1h2q0.4-0.2 0.9-0.3 0.4 0 0.9 0 0.5 0 1 0 0.4 0.1 0.9 0.3c0.6 0 0.3 0.3 0.6 0.6l1.4 0.5h-0.6c-0.6-1.1-1.4-1.1-2.3-1.1q-1.4-0.7-2.9-1.2-1.5-0.5-3.1-0.8-1.5-0.3-3.1-0.5-1.6-0.1-3.2-0.1h-2.3q-1.2-0.4-2.5-0.6-1.3-0.3-2.6-0.4-1.3-0.2-2.6-0.2-1.3 0-2.6 0.1h0.6zm20.9 8.8h0.6zm21.4 1.5q0.3 0.3 0.6 0.4 0.4 0.2 0.8 0.3 0.3 0.1 0.7 0 0.4 0 0.8-0.1h1.7q-0.5-0.5-1.2-0.9-0.6-0.3-1.2-0.6-0.7-0.2-1.4-0.4-0.7-0.1-1.4-0.2l-2-0.5 1.5 0.8zm-9.8-3.7c0 0.3 0.3 0.6 0.6 0.9h0.6l1.4-0.9q-0.5-0.3-1.1-0.6-0.6-0.3-1.2-0.5-0.6-0.2-1.3-0.4-0.6-0.1-1.2-0.2l2 1.1zm21.1 7.8l2.3 1.4c-0.6-0.9-1.1-1.4-2.3-1.4z"/><path class="b" d="m283 217.7l1.7-4.6 1.8-4.3c0.5-1.4 1.7-5.1 2.2-7.4q0.1-0.3 0.2-0.6 0-0.2 0.2-0.5 0.1-0.2 0.2-0.5 0.1-0.2 0.3-0.4h0.3v-3.2c1.4-0.3 1.1-1.7 1.4-2.6l2.3-13.4q0.5-2.2 0.8-4.4 0.3-2.2 0.3-4.5 0-2.2-0.3-4.4-0.3-2.3-0.8-4.4 0.1-0.6 0.1-1.3-0.1-0.6-0.3-1.2-0.2-0.6-0.5-1.1-0.3-0.6-0.7-1v-12.3c-0.9-2.6 0.8-5.4-1.2-7.7l-2.3-9.2q0.1-0.1 0.1-0.1 0-0.1 0-0.2 0 0 0-0.1 0-0.1-0.1-0.2l-0.5-1.7q-0.1-0.1-0.1-0.3-0.1-0.1-0.1-0.2 0-0.2 0.1-0.3 0-0.2 0.1-0.3h0.3c0.8 0 0.8-1.4 0.8-2.6q-0.1-0.4-0.2-0.8-0.1-0.4-0.2-0.8-0.2-0.4-0.3-0.8-0.2-0.4-0.4-0.7l-0.9-1.2q-0.1-0.2-0.3-0.4-0.1-0.3-0.1-0.5-0.1-0.3-0.2-0.6 0-0.2 0-0.5 0.1-0.7 0.1-1.4-0.1-0.7-0.1-1.5-0.1-0.7-0.2-1.4-0.2-0.7-0.3-1.4v-1.7c-0.6-2-1.2-4.3-1.8-6.3l-0.5-1.4q-0.3-0.4-0.4-0.8-0.2-0.4-0.4-0.7-0.1-0.4-0.2-0.9-0.1-0.4-0.2-0.8 0-0.3-0.1-0.6-0.1-0.3-0.2-0.6-0.1-0.3-0.2-0.5-0.2-0.3-0.3-0.6l-1.7-2.8q-0.2-0.2-0.4-0.3-0.2-0.1-0.4-0.2-0.3-0.1-0.5-0.1-0.2 0-0.5 0h-0.2v-0.9h-0.6v-2.3h-0.3v-0.5q0-0.1 0-0.1 0 0 0-0.1 0 0 0 0 0-0.1 0-0.1v-0.6c0.3-0.6 0.3-0.8-0.3-1.4q-0.2-0.2-0.3-0.4-0.2-0.2-0.3-0.4-0.2-0.2-0.3-0.5-0.1-0.2-0.2-0.4l-0.6-1.7q-0.1-0.5-0.3-1-0.2-0.5-0.5-0.9-0.3-0.4-0.6-0.8-0.3-0.4-0.6-0.8-0.2-0.2-0.4-0.4-0.2-0.3-0.4-0.5-0.2-0.3-0.4-0.5-0.1-0.3-0.2-0.6l-2-4.6q-0.2-0.3-0.4-0.7-0.2-0.4-0.4-0.7-0.2-0.4-0.5-0.8-0.2-0.3-0.5-0.6l-1.7-2.3q-0.2-0.3-0.3-0.5-0.2-0.3-0.4-0.6-0.1-0.3-0.2-0.6-0.1-0.3-0.2-0.6l-0.6-0.9q-0.1-0.1-0.2-0.3-0.1-0.2-0.1-0.3 0-0.2 0-0.4 0-0.2 0-0.4 0-0.2 0-0.3-0.1-0.2-0.1-0.3-0.1-0.2-0.2-0.3-0.1-0.1-0.2-0.2l-1.2-0.9v0.6c0.3 0.6 0 0.8-0.3 0.8h-0.5l0.8 2.9 0.9 1.4 2 2.6h-0.3l-0.6-0.6-0.6-0.5q-0.1-0.7-0.4-1.2-0.3-0.6-0.7-1-0.5-0.4-1.1-0.7-0.6-0.2-1.2-0.3v-2c-0.9-3.4-4.6-3.7-6.3-6q-0.2-0.5-0.5-0.9-0.3-0.4-0.7-0.8-0.4-0.3-0.9-0.5-0.5-0.3-1-0.4l-2.3-2.5q-0.9-1.3-1.9-2.5-1-1.2-2.1-2.3-1.2-1-2.4-2-1.2-1-2.5-1.8l-2.3-1.7-1.1-0.9c-2-2-2.9-5.1-6.3-5.1l-2.3-1.5-2.6-2q-0.3-0.7-0.8-1.4-0.6-0.6-1.2-1.1-0.7-0.5-1.5-0.8-0.8-0.3-1.6-0.4-0.7-0.6-1.5-1.2-0.8-0.5-1.6-0.9-0.8-0.5-1.7-0.8-0.9-0.3-1.8-0.5l0.6 0.5 1.4 1.2 3.7 2q0.9 0.4 1.6 1 0.8 0.5 1.6 1 0.8 0.6 1.5 1.2 0.7 0.7 1.3 1.4 0.5 0.4 1 0.9 0.5 0.4 1.1 0.8 0.5 0.4 1.1 0.7 0.5 0.4 1.1 0.7l1.7 1.4c0.3 0.3 0.6 0.6 0.3 0.9h-0.3l-2.5-0.9q-0.8-0.1-1.5-0.3-0.8-0.2-1.5-0.5-0.7-0.3-1.4-0.7-0.7-0.3-1.4-0.7l-3.4-1.8-3.7-2h-0.6c-0.8-0.2-1.1-1.1-2.3-1.4l-2.3-0.6-7.1-1.4q-0.4-0.2-0.7-0.4-0.4-0.2-0.7-0.5-0.3-0.2-0.6-0.5-0.3-0.3-0.6-0.6-0.3 0-0.7-0.1-0.3 0-0.6-0.1-0.4-0.2-0.7-0.3-0.3-0.2-0.6-0.4l-2.8-1.1q-1-0.2-2.1-0.5-1-0.2-2-0.5-1-0.3-2-0.6-1-0.3-1.9-0.7l-1.7-0.6-2.9-0.8h-1.4l-0.6-0.9v-0.3h-4.6l-1.7-1.4-1.1 0.6-1.2 0.6h-0.6l-2.5-1.5c-1.8 1.7-3.2-0.6-4.6-0.3l-2.9-0.8q-0.4 0.2-0.8 0.3-0.4 0.1-0.9 0.1-0.4 0-0.9-0.1-0.4-0.1-0.8-0.3h-3.4q-0.3-0.1-0.6-0.2-0.3-0.2-0.5-0.4-0.2-0.3-0.3-0.5-0.1-0.3-0.1-0.6l0.9-0.6h1.7q0.1 0.1 0.1 0.2 0.1 0.1 0.1 0.2 0 0.1 0.1 0.2 0 0.1 0 0.2c0 0.6 0.6 0.6 1.4 0.6h0.6l-1.2-1.7q-0.2-0.2-0.6-0.4-0.3-0.2-0.7-0.2-0.4-0.1-0.8-0.1-0.3 0-0.7 0.1l-2.9 0.9h-0.3c0.9 0.6 0.6 0.8 0.6 1.4h-4.6l-1.1-0.6-2.3-1.1h-0.3l-2-0.6h-6.6l1.2-0.5 2.3-0.6h0.8l4.9-0.9 3.1-0.5 1.8-0.6h-3.2q-1.2-0.3-2.4-0.4-1.2-0.1-2.5-0.1-1.2 0-2.4 0.1-1.2 0.1-2.4 0.4h-3.7l-9.8-0.3c-4 0.3-8 0-11.1 3.4-7.2-1.1-13.5 2-19.8 5.2l-6.2 2.6q-1.5 0.2-3 0.6-1.4 0.4-2.7 1.1-1.4 0.7-2.6 1.5-1.2 0.9-2.3 1.9h0.8l1.5-0.9 2.2-1.4 3.8-1.7 2.8-0.6q0.7-0.4 1.4-0.8 0.6-0.4 1.4-0.7 0.7-0.3 1.4-0.6 0.8-0.3 1.5-0.4l2.6-0.9h0.6c0.3 0.6 1.4 0 2 0h0.6c0.3 0 0.3 0.3 0 0.3l-1.8 1.1 2.9-0.8 2.3-0.6-3.7 2-3.7 1.1q-0.3 0.1-0.6 0.3-0.2 0.1-0.4 0.3-0.3 0.2-0.4 0.4-0.2 0.2-0.4 0.5l-0.8 1.4h0.8l1.2-0.6q0.2-0.3 0.5-0.6 0.3-0.3 0.6-0.5 0.3-0.2 0.7-0.4 0.4-0.1 0.8-0.2l4.3-1.4h1.4q0.1 0 0.2 0 0.1 0 0.2 0.1 0 0.1 0 0.3 0 0.1-0.1 0.1c-0.6 0.6-1.7 0.9-2.3 1.5h0.6l-9.2 2.6-10.9 4.5q-0.7 0.7-1.4 1.2-0.8 0.5-1.6 1-0.9 0.4-1.8 0.7-0.8 0.4-1.7 0.6-0.6 0.5-1.2 0.9-0.5 0.4-1.2 0.8-0.6 0.4-1.2 0.8-0.6 0.3-1.3 0.6l-2.3 0.6q-0.2 0.5-0.6 1-0.4 0.5-0.9 0.8-0.5 0.3-1.1 0.5-0.5 0.2-1.1 0.3l-0.9 1.4q-0.3 0.5-0.7 0.9-0.4 0.5-0.8 0.9-0.4 0.4-0.9 0.7-0.5 0.3-1 0.6h-0.3v-0.3l-0.6 0.6-0.5 0.6-2.9 0.6h-1.4l-1.2 1.4c-0.3 0.3-0.3 0.6 0 0.6h0.3c-1.7 1.7-2.8 4-5.1 4.8l-3.8 4.3c-1.7 3.5-5.1 4.6-7.4 7.5-2.3 2.8-4 11.1-11.1 12.3l-0.6-0.9-0.6 1.4q-0.1 0.3-0.2 0.6-0.1 0.3-0.3 0.6-0.1 0.3-0.3 0.6-0.1 0.3-0.3 0.5-0.5 0.7-1 1.5-0.4 0.7-0.9 1.5-0.4 0.7-0.8 1.5-0.4 0.7-0.8 1.5-0.1 0.2-0.1 0.4-0.1 0.1-0.1 0.3-0.1 0.2-0.1 0.4 0 0.2 0 0.4 0.1 0.3 0 0.6 0 0.3-0.1 0.5 0 0.3-0.2 0.6-0.1 0.3-0.2 0.5l-1.5 3.2h0.6c0.9 0 0.9 0.8 1.2 1.7l2.2-3.1q0.2-0.3 0.4-0.6 0.2-0.3 0.4-0.5 0.2-0.3 0.5-0.5 0.2-0.2 0.5-0.4 0.4-0.2 0.8-0.5 0.3-0.3 0.7-0.6 0.3-0.3 0.6-0.7 0.2-0.4 0.4-0.8l0.9-0.9 1.1-1.1 1.8-3.2h0.5c0.3 0.3 0.3 0.3 0.6 0l0.6-1.1h1.4v2.3l1.4-1.5q0.1-0.1 0.2-0.3 0-0.2 0-0.4 0-0.2 0-0.3-0.1-0.2-0.2-0.4 0-0.1 0-0.2 0.1-0.1 0.1-0.2 0-0.2 0.1-0.3 0-0.1 0.1-0.1 0.2-0.2 0.3-0.4 0.1-0.1 0.2-0.3 0.1-0.2 0.2-0.4 0.1-0.2 0.2-0.4 0.1-0.4 0.3-0.8 0.2-0.4 0.5-0.7 0.3-0.4 0.7-0.6 0.3-0.3 0.8-0.4l0.8-0.6 0.9-0.9q0.4-0.2 0.7-0.6 0.3-0.3 0.6-0.6 0.3-0.4 0.6-0.8 0.2-0.4 0.4-0.8l-0.6-0.9c0-0.3 0.3-0.9 0.6-1.1h1.4l1.7-2.3 1.7-0.9h0.6q-2.2 2.4-4.3 4.9-2.1 2.5-4 5-2 2.6-3.9 5.3-1.8 2.7-3.5 5.4h-0.3 0.3q-2.4 3.8-4.6 7.6-2.1 3.9-4 7.9-1.9 4.1-3.6 8.2-1.6 4.1-3 8.3h-1.4l-1.4-1.1c-0.6-0.6-0.3-2-1.2-2.6h0.3c0.9-1.4-0.3-3.4 0.9-4.8 1.1-1.5 0.2-4-2.6-3.5-2.9 0.6-4.3 1.5-3.7 4.3 0.5 2.9-2.9 5.2-3.2 8.3-0.3 3.2-1.4 1.4-0.8 2.6v11.1c0.2 2.3-1.5 5.2 2.2 6.1l3.8 2.5c0.3 1.5-1.5 4.6 2.5 3.7q-0.2 1.8-0.3 3.6-0.2 1.8-0.3 3.6-0.1 1.8-0.1 3.6-0.1 1.8-0.1 3.6c0 3.1 0.3 6.2 0.3 9.4v-1.2c-0.3-1.1-0.3-2.2-0.6-3.7l-0.9 0.9v-0.6h-1.4c0 1.4-0.3 2.3-1.1 2.6q-0.1 0.2-0.2 0.3 0 0.2-0.1 0.4 0 0.2 0 0.3 0 0.2 0 0.4c0 0.3 0.3 0.9 0.5 0.6 0.3-0.3 1.2 0.6 2.1 1.1 0.8 0.6-0.6 0.9-1.2 0.6-0.6-0.3-0.6 0.3-0.6 0.9v0.8l1.5 4.3c0 0.9-0.3 1.7-0.3 2.6q0 0.3 0 0.6 0.1 0.3 0.1 0.6 0.1 0.3 0.2 0.5 0.1 0.3 0.3 0.6h-0.9v-0.9l-2-0.6v-1.7q0-0.1 0-0.3 0-0.2 0-0.4 0-0.2 0-0.3 0-0.2 0-0.4-0.2-0.6-0.3-1.3-0.1-0.6-0.2-1.3-0.1-0.6-0.2-1.3-0.1-0.6-0.2-1.2-0.2-1.3-0.3-2.5-0.1-1.3-0.2-2.5-0.1-1.3-0.1-2.6 0-1.2 0.1-2.5-0.1-0.1 0-0.3 0-0.2 0-0.4 0-0.2 0.1-0.4 0.1-0.1 0.1-0.3v0.6q0.1 0.2 0.1 0.3 0.1 0.2 0.1 0.4 0.1 0.2 0.1 0.3 0 0.2 0 0.4 0 0.2 0 0.3 0.1 0.2 0.1 0.3 0 0.1 0.1 0.3 0 0.1 0.1 0.3c0.3 0.5 0.6 1.1 1.2 1.1 0.5 0 0.2-0.3 0.2-0.6q0-0.2 0-0.3 0-0.2-0.1-0.4 0-0.2 0-0.4-0.1-0.1-0.1-0.3-0.2-0.4-0.4-0.9-0.1-0.5-0.2-0.9-0.1-0.5-0.2-1-0.1-0.4-0.1-0.9 0-0.3-0.1-0.6-0.1-0.2-0.2-0.5-0.1-0.2-0.2-0.5-0.2-0.2-0.4-0.4-0.1-0.3-0.2-0.6-0.2-0.3-0.2-0.7-0.1-0.3-0.1-0.6-0.1-0.4 0-0.7v-2.3c0-0.8 0.3-1.7 0.3-2.6q0-0.1 0-0.3 0-0.1-0.1-0.3 0-0.1-0.1-0.2 0-0.2-0.1-0.3h-0.3c-2.3 1.1-2 0.6-2.9 4.6v5.1c0 2-0.3 4 0 6q0 0.9 0 1.7 0.1 0.8 0.1 1.6 0.1 0.9 0.2 1.7 0.1 0.8 0.3 1.6 0 0.2 0 0.4 0 0.1 0 0.3 0 0.2 0 0.4 0 0.2 0 0.3 0 0.4 0 0.7 0 0.3 0 0.6 0.1 0.4 0.1 0.7 0.1 0.3 0.2 0.6 0.1 0.5 0.1 0.9 0.1 0.5 0.1 1 0.1 0.4 0.1 0.9 0 0.5 0 0.9-0.1 0.6-0.1 1.3 0 0.6 0.1 1.2 0.1 0.6 0.2 1.2 0.1 0.6 0.3 1.2 0.1 0.1 0.1 0.3 0 0.1 0 0.3 0 0.1 0 0.3 0 0.1-0.1 0.2 0 0.3 0 0.6 0 0.3 0.1 0.6 0 0.3 0.1 0.6 0 0.2 0.1 0.5 0.1 0.3 0.2 0.7 0.1 0.3 0.2 0.6 0 0.3 0.1 0.6 0.1 0.4 0.1 0.7 0.1 0.8 0.3 1.6 0.1 0.8 0.3 1.6 0.2 0.8 0.4 1.5 0.2 0.8 0.4 1.6 0.1 0.3 0.2 0.7 0.1 0.3 0.2 0.7 0.1 0.4 0.1 0.7 0.1 0.4 0.1 0.8 0.1 0.2 0.1 0.5 0.1 0.2 0.2 0.5 0.1 0.3 0.3 0.5 0.1 0.2 0.3 0.5 0.2 0.3 0.5 0.7 0.2 0.5 0.4 0.9 0.2 0.4 0.3 0.9 0.1 0.4 0.2 0.9 0.1 0.4 0.2 0.7 0.1 0.4 0.2 0.7 0.1 0.4 0.2 0.7 0.1 0.4 0.3 0.7l1.1 4.1q0.1 0.5 0.3 1.1 0.2 0.5 0.4 1.1 0.2 0.5 0.5 1 0.2 0.5 0.5 1 0.4 0.8 0.7 1.5 0.4 0.7 0.7 1.5 0.2 0.7 0.5 1.5 0.2 0.8 0.4 1.5l0.6 1.5q0.2 0.3 0.5 0.6 0.2 0.3 0.4 0.7 0.2 0.4 0.3 0.8 0.1 0.3 0.2 0.7 0.1 0.4 0.2 0.7 0.1 0.3 0.2 0.5 0.2 0.3 0.4 0.6 0.1 0.3 0.3 0.5 0.2 0.2 0.3 0.4 0.1 0.1 0.1 0.3 0.1 0.2 0.1 0.4 0.1 0.2 0.1 0.4c0.3 0.8 0.6 1.1 1.2 0.8h0.2v2.6l1.5 2.9 1.4 2.8 3.2 3.4 1.1 1.2c0.9 0.8 2 1.4 2.6 2.8l1.1 0.9q0.2 0.1 0.3 0.3 0.2 0.1 0.3 0.3 0.1 0.2 0.2 0.4 0.1 0.2 0.1 0.4l0.5 2q0.2 0.4 0.4 0.7 0.2 0.4 0.4 0.7 0.2 0.3 0.5 0.6 0.2 0.3 0.5 0.6l1.1 0.6h0.9q0.1 0 0.2 0.1 0.1 0.1 0.1 0.2 0.1 0.2 0 0.3 0 0.1 0 0.2-0.1 0.2-0.1 0.4 0 0.2 0 0.4 0 0.1 0 0.3 0 0.2 0.1 0.4 0 0.2 0.1 0.4 0.1 0.2 0.3 0.4 0.1 0.2 0.3 0.3 0.2 0.2 0.4 0.3h0.6c1.1-0.3 2.3 0.6 3.4 2h0.3c0-0.3 0.3-0.3 0-0.6v-0.5c0-0.3 0.3-0.6 0.6-0.3q0.2 0.1 0.3 0.3 0.2 0.2 0.3 0.4 0.1 0.2 0.2 0.5 0 0.2 0 0.5v0.6q0.1 0.4 0.2 0.9 0.1 0.4 0.3 0.8 0.1 0.5 0.3 0.9 0.2 0.4 0.4 0.8c1.4 0.9 1.4 0.9 1.4 0.3 0-0.6 0-0.6 0.6-0.6h1.1l0.6 0.9 2.3 1.4c2 2.3 5.1 2 7.4 3.4l4.9 4.9h0.5q0.4 0.8 0.8 1.5 0.5 0.7 1.1 1.2 0.6 0.6 1.2 1.1 0.7 0.5 1.5 0.8 0.2 0.3 0.6 0.6 0.3 0.3 0.6 0.6 0.4 0.2 0.8 0.3 0.4 0.2 0.9 0.2c0 1.4 1.7 1.7 3.1 2q0.2 0.2 0.5 0.4 0.3 0.2 0.6 0.4 0.3 0.1 0.6 0.2 0.3 0.1 0.6 0.1h0.6q0.4 0.5 0.9 0.8 0.5 0.3 1.1 0.5 0.5 0.2 1.1 0.2 0.6 0.1 1.2 0l2.5 2.3 6.9 2.5v0.6c1.4 3.1 4.9 2 7.2 2.9l3.1 1.1h1.2c3.4 0.9 6.8 2.6 10.5 1.4q0 0.2 0 0.3 0 0.2 0 0.3 0 0.1 0 0.3 0 0.1 0 0.3c3.2 2 6.9 0 10.3 1.1q0.6 0.2 1.2 0.4 0.6 0.1 1.2 0.1 0.7 0.1 1.3 0 0.6 0 1.2-0.2h0.3l2.3 0.6h0.8l2.6 0.6h0.9q0.1-0.1 0.3-0.2 0.2 0 0.4 0 0.2 0 0.3 0 0.2 0.1 0.4 0.2 0.5 0.1 1 0.3 0.6 0.2 1.1 0.3 0.5 0.2 1.1 0.3 0.5 0.1 1.1 0.2h1.7q0.2-0.1 0.5-0.2 0.2-0.1 0.5-0.1 0.3 0 0.5 0.1 0.3 0.1 0.5 0.2h11.2q0.5 0.1 1.1 0.1 0.6 0 1.2-0.1 0.5 0 1.1-0.1 0.6-0.1 1.1-0.2h2.9l1.4-0.6h9.5l1.7-0.5 1.4-0.9h6.3v1.7h-3.7l-3.4 0.6c-1.2 0.3-2.1 0-2.9 0.3q-0.3 0.1-0.7 0.2-0.3 0.1-0.7 0.2-0.4 0.1-0.7 0.1-0.4 0.1-0.8 0.1l-3.7 0.8h-1.1q-0.6-0.1-1.1-0.1-0.6 0-1.1 0-0.5 0-1.1 0.1-0.5 0.1-1 0.3h-5.2q-0.3 0.1-0.6 0.2-0.3 0.1-0.7 0.1-0.3 0-0.6-0.1-0.3-0.1-0.6-0.2h-12.9q-0.4-0.1-0.9-0.1-0.4 0.1-0.8 0.2-0.4 0.1-0.8 0.3-0.3 0.2-0.7 0.5h-0.8l-0.9-0.6v-0.9h-3.4q-0.5-0.2-0.9-0.3-0.5-0.1-0.9-0.3-0.5-0.1-1-0.1-0.5-0.1-0.9-0.1h-7.2l-2-0.6-1.4-0.6-6-1.1h-1.5l-1.4-0.6-6-2-4-1.1h-6.3c-0.3 0-0.3 0.2-0.3 0.5h0.6c3.7 1.5 7.4 2.6 11.2 4.3h0.8l2.6 0.6 4 1.1h3.7l1.7 0.6 2 0.9 4.9 0.8 3.1 0.6 3.2 0.6h2.3l2.3 0.5h8.8l2.9 0.6h6.6l2.8-0.6h6.3c1.2 0 1.7-0.2 2-0.8h2.9q0.3 0 0.6 0 0.3-0.1 0.6-0.2 0.3-0.1 0.6-0.3 0.3-0.1 0.5-0.4c-0.3 0.3 0 0.3 0.3 0.6h1.1v-0.6c0-0.3 0-0.3 0.6-0.5 0.5-0.3 1.7-0.3 2 0.2h1.1l0.9-0.5c0.6 0 0.6 0 0.6 0.3h2l1.4-0.6 2.3-1.2c0.3 0.9 1.1 1.2 3.7 0.6l3.7-1.1h3.4c2.6-0.3 5.8 0 7.8-2h0.5l1.2-0.9 3.1-0.9q0.8-0.1 1.5-0.3 0.8-0.3 1.5-0.5 0.7-0.3 1.4-0.7 0.7-0.3 1.3-0.7l1.2-0.6h0.3l2.6-1.7 1.1-0.6 1.4-0.6h1.2c1.1-0.3 1.1-0.3 1.4-1.1 0.3-0.9 0-0.3-0.6-0.3h-0.3l1.2-1.4h0.6c0.8-0.3 1.4-0.6 2-0.3h0.5q0.5-0.1 0.9-0.4 0.4-0.2 0.8-0.6 0.3-0.3 0.5-0.7 0.3-0.4 0.4-0.9c0.9-1.1 3.2-0.6 3.7-2.3l12.3-8.8c3.2-0.3 4-3.2 6.3-4.9 2.3-1.7 6.6-3.2 8.6-6.3l2.6-1.1h0.3q0.5 0.1 1.1 0 0.5-0.1 1-0.4 0.5-0.2 0.8-0.7 0.3-0.4 0.5-1v1.2c2.3-1.2 5.1 0.9 7.4-1.4 2.3-2.3 0-7.8 2.9-10.9l2-1.4q0.8-1.4 1.5-2.9 0.7-1.4 1.2-2.9 0.5-1.6 0.9-3.1 0.4-1.6 0.7-3.1l0.6-0.6c0-0.9 0-2 1.1-2.6q0.4-0.3 0.6-0.7 0.3-0.4 0.4-0.9 0-0.5-0.1-1-0.1-0.4-0.3-0.8h-0.6q0.1-0.1 0.1-0.2 0-0.1 0-0.3 0-0.1 0-0.2 0-0.1-0.1-0.2c2 0 2.3-2 3.4-2.8v-4.1q0 0 0-0.1 0-0.1 0-0.1 0-0.1 0-0.2 0-0.1 0-0.1 0.1-0.3 0.1-0.5 0.1-0.3 0.1-0.5 0.1-0.3 0.1-0.5 0-0.3 0-0.5z"/><path class="b" d="m75.4 26.6l-0.9 0.6-1.1 0.8 1.4-0.5zm17.4-5.8h0.3l0.9-0.5h-1.2zm-7.4 2.8l-0.3 0.3h0.3zm-59.2 51.2l-1.2 1.2h0.6q0.2-0.1 0.3-0.2 0.1-0.2 0.2-0.3 0-0.2 0.1-0.3 0-0.2 0-0.4zm8.6-10q0.1-0.2 0.2-0.4 0.2-0.2 0.3-0.4 0.1-0.2 0.2-0.5 0.1-0.2 0.1-0.4-0.2 0.1-0.4 0.3-0.2 0.1-0.4 0.3-0.2 0.2-0.3 0.4-0.2 0.2-0.3 0.4c-0.3 0.3-0.3 0.6 0 0.6zm-3.4 4.3v-0.6c-0.6 0-1.5 0.9-2.3 0.9v0.5c0.8 0.9 1.1 0.6 2.3-0.8zm179.9-42.9h0.3l-1.5-0.9zm-7.1-4c1.4-0.3 2.3 1.2 3.4 1.4h0.3l-0.9-0.5-2.8-1.5-3.2-1.4 0.9 0.6zm-19.7-7.7h-0.3l-3.5-0.6h1.5zm5.7 2l3.7 1.1q-0.4-0.2-0.9-0.4-0.4-0.2-0.9-0.3-0.5-0.2-0.9-0.3-0.5-0.1-1-0.1zm-25.8 0q0.2-0.2 0.3-0.3 0.1-0.2 0.1-0.4 0.1-0.2 0.2-0.4 0-0.1 0-0.3h-1.4l-0.9 0.8 1.2 0.9zm13.7 0.8q0 0.1 0 0.1 0 0 0 0.1 0 0 0 0 0 0.1 0 0.1zm128.1 149.6h-0.8v-1.1h0.8c0.3 0 0.6-0.9 0.3-1.2-0.3-0.3-0.3-2-0.8-2.3q-0.2 0-0.3-0.1-0.1-0.1-0.2-0.2 0-0.1-0.1-0.2 0-0.2 0-0.3l0.6-1.2q0 0 0-0.1 0-0.1 0-0.1 0-0.1 0-0.2 0-0.1 0-0.1h-0.6l-0.6-0.9c-0.3 0.9-0.5 1.7-1.1 2q0 0.1 0 0.2 0 0 0 0.1 0 0.1 0 0.1 0 0.1 0 0.2c0 0.3 0 0.6-0.3 0.6h-0.3q0 0.1 0 0.2-0.1 0.1-0.1 0.2 0 0.1-0.1 0.2 0 0.1-0.1 0.2-0.2 0.3-0.4 0.6-0.1 0.3-0.3 0.6-0.1 0.4-0.2 0.7-0.1 0.3-0.2 0.7-0.1 0.1-0.1 0.3 0 0.1 0.1 0.3 0 0.1 0.1 0.3 0.1 0.1 0.2 0.2h0.3q-0.1 0.3-0.2 0.6-0.1 0.3-0.1 0.6-0.1 0.2-0.1 0.5 0 0.3 0.1 0.6v1.2q0 0.1-0.1 0.3 0 0.2 0 0.4-0.1 0.2-0.1 0.3-0.1 0.2-0.1 0.4h-0.3l-1.1 2v1.7q0 0.4 0 0.8-0.1 0.5-0.2 0.9-0.1 0.4-0.3 0.7-0.1 0.4-0.4 0.8h-0.6l-0.5-0.6q-0.2-0.3-0.3-0.5-0.1-0.3-0.2-0.6 0-0.3 0-0.6 0.1-0.3 0.2-0.6 0.1-0.6 0.2-1.2 0-0.6 0.1-1.2 0-0.6 0-1.2 0-0.7 0-1.3c0-0.3-0.3-0.5-0.3-0.5q-0.1 0.1-0.2 0.2 0 0.1 0 0.2-0.1 0.1-0.1 0.2 0 0.1 0 0.2v1.7c0 0.6-0.3 1.8-0.9 2-0.5 0.3-0.3 0.6-0.3 0.9l-0.5 1.7 0.8 1.4c-0.5 0.6-1.1 0.3-1.4-0.2v2.8h0.9v1.2q-0.2 0.4-0.4 0.9-0.1 0.5-0.2 1-0.2 0.5-0.2 1-0.1 0.6-0.1 1.1 0 0.1 0 0.3 0 0.1 0 0.2 0 0.2 0 0.3 0 0.2 0 0.3 0 0.5 0 1-0.1 0.4-0.1 0.9-0.1 0.5-0.2 0.9-0.1 0.5-0.3 0.9 0 0.2 0 0.5 0 0.2 0 0.4 0 0.2 0 0.4 0 0.2 0 0.4l-0.8 2q-0.1 0.3-0.2 0.6-0.1 0.2-0.2 0.5-0.1 0.2-0.2 0.5-0.2 0.2-0.3 0.4l-0.9 1.8-2.5 7.7c0.8 2.6-1.2 4.3-2.3 6q0.1 0.9 0 1.8-0.1 0.9-0.4 1.8-0.3 0.8-0.8 1.6-0.5 0.7-1.1 1.4v1.1c0 0.3 0.3 0.6 0.9 0.3l1.1-0.9 0.6-1.1h0.5c0.3 0.3 0.6 0.3 1.2-0.3h0.6q0.1 0.2 0.2 0.4 0.2 0.2 0.2 0.4 0 0.3 0 0.5 0 0.2-0.2 0.4 0 0.3-0.1 0.6 0 0.3-0.1 0.6 0 0.3 0 0.5 0 0.3 0 0.6c0 0.3 0 0.6 0.2 0.6h0.6q0.4 0.4 0.9-0.9l0.5-1.4h0.9c1.2-0.3 1.2-0.3 1.7-1.7l1.5-2.6 0.8-1.7 1.2-2.9q-0.1-0.3 0-0.7 0-0.4 0.1-0.8 0.2-0.3 0.3-0.7 0.2-0.3 0.4-0.6 0.2-0.2 0.3-0.4 0.1-0.2 0.1-0.4 0-0.3 0-0.5 0-0.2-0.1-0.4c0-0.6 0-0.9 0.6-1.8l0.8-1.1 1.5-2.9q0-0.3 0.1-0.6 0-0.3 0.1-0.7 0.1-0.3 0.1-0.6 0.1-0.3 0.2-0.6 0.2-0.5 0.4-0.9 0.2-0.5 0.3-0.9 0.1-0.5 0.1-1 0.1-0.5 0.1-1 0.1-0.3 0.1-0.6 0.1-0.3 0.2-0.7 0.1-0.3 0.3-0.6 0.1-0.3 0.2-0.6v-1.5c-0.2-0.5-0.2-0.5 0-1.7 0.3-1.1 0.3-0.5 0.6-0.5q0.1 0 0.2 0.1 0 0.1 0.1 0.3 0 0.1 0 0.2 0 0.1 0 0.2l0.6-1.4q0.1-0.3 0.2-0.6 0.1-0.4 0.2-0.7 0.1-0.3 0.1-0.6 0-0.4 0-0.7v-0.9c0-0.2 0-0.8-0.2-0.8v1.1c-0.6 0-0.9 0.6-1.5 0.9q0.1-0.3 0.1-0.6 0.1-0.3 0.1-0.5 0-0.3 0.1-0.6 0-0.3 0-0.6l1.2-0.6q0.1-0.1 0.3-0.3 0.1-0.2 0.2-0.5 0-0.2 0-0.4 0.1-0.2 0-0.5 0-0.1 0-0.2 0-0.1 0-0.2 0-0.1 0-0.2 0-0.1 0-0.2 0.2-0.5 0.3-1 0.1-0.5 0.2-1 0-0.5 0.1-1 0-0.5 0-1v-0.6l0.9-2.9h0.3q0-0.1 0.1-0.2 0.1-0.1 0.1-0.2 0.1-0.1 0.1-0.2 0-0.1-0.1-0.2h-0.2q-0.1-0.3-0.1-0.6 0-0.4 0.1-0.6 0-0.3 0.2-0.6 0.1-0.3 0.3-0.5-0.1-0.5-0.3-0.9-0.3-0.5-0.6-0.9-0.4-0.3-0.8-0.6-0.4-0.3-0.9-0.5zm-280.3-78.9q0.1-0.1 0.1-0.2 0 0 0-0.1 0-0.1 0-0.2 0 0-0.1-0.1l-0.5-0.6-0.6 0.6-0.9 1.7c0 0.9-0.8 1.7-0.8 2.6v0.6h0.3zm275.4 70.9h0.3q0.2-0.4 0.4-0.8 0.1-0.4 0.2-0.9 0.1-0.4 0.1-0.9 0-0.4-0.1-0.8-0.1-0.2 0-0.4 0-0.2 0-0.4 0.1-0.2 0.3-0.4 0.1-0.1 0.2-0.3h0.3v-0.5l-0.5-0.6h-0.3c-0.3 0.3-0.6 0.8-0.9 0.8-0.3 0-0.3 0.3-0.3 0.9v0.9q-0.1 0.4-0.1 0.8 0 0.5 0 0.9 0.1 0.4 0.2 0.9 0.1 0.4 0.2 0.8zm-263.7 98.7c-0.3 0 0 0.6 0 0.8l2.3 2.3h0.3c-0.6-0.8-0.9-1.7-0.6-2q-0.2 0-0.4 0-0.2-0.1-0.4-0.2-0.2 0-0.3-0.1-0.2-0.1-0.3-0.2zm266.3-101.3h0.2q0.1-0.2 0.1-0.4 0-0.2 0-0.5 0-0.2 0-0.4 0-0.2-0.1-0.4c-0.8 0.3-0.8 0.3-0.8 1.7 0 1.4 0.3 0.3 0.6 0z"/><path class="a" d="m305 177.3q0.2-0.1 0.2-0.3 0.1-0.2 0.1-0.3 0.1-0.2 0.1-0.4 0-0.2-0.1-0.4c0-0.3-0.3-0.6-0.3-0.3h-0.5v0.6c0 1.1 0.3 1.4 0.5 1.1zm0.3-23.4h-0.3v1.7q0.1-0.2 0.2-0.4 0.1-0.2 0.1-0.4 0.1-0.3 0.1-0.5 0-0.2-0.1-0.4zm-256.5 111h-0.6v0.5l0.6 0.6h0.5v-0.6zm247.7-95.2c0-0.3 0-0.3-0.3-0.3zm-268.3 77.8l1.5 1.4-1.2-1.7z"/><path fill-rule="evenodd" class="a" d="m29.8 249z"/><path class="a" d="m27.6 86.1h-0.3v0.6-0.6zm238-18.9l-0.6-0.8h-0.3zm-249.1 25.4q0 0 0.1-0.1 0-0.1 0.1-0.1 0-0.1 0-0.2 0.1-0.1 0.1-0.2v0.6zm281.7 80.7v0.3zm-251.4 91.2h-0.3c0.3 0.3 0.6 0 0.3-0.3zm0.6 2h0.3l-0.3-0.3z"/><path class="c" d="m84.7 56.8c0.3 0 136.3-2.1 136.8-1.3 8.5 7.5 6.4 185 0.8 190-2.7 2.2-30.9 3.8-61.2 4-5.6-25.5-1.4-55.3-1.4-55.3 1.6-12-16.2-14.1-17.5-2.7 0 0.3-4.3 30.1 1 58.3-30.3-0.3-57.7-1.6-59.3-4.3-5.3-9.5 0-188.1 0.8-188.7zm60.7 36.5l-2.2 28.2c-0.5 12 17.3 13.1 18.1 1.4l1.6-28.5c0.8-11.7-17-13.1-17.5-1.1z"/></svg>